<?xml version="1.0" encoding="UTF-8"?><svg id="_图层_2" xmlns="http://www.w3.org/2000/svg" viewBox="0 0 202.35 35.47"><defs><style>.cls-1{fill:#fff;font-family:PingFangSC-Medium-GBpc-EUC-H, 'PingFang SC';font-size:19.75px;}.cls-2{fill:#fbc70d;}.cls-3{fill:#6e35fc;}</style></defs><g id="_图层_1-2"><g><g><path class="cls-3" d="M41.07,34.93v-2.54c0-1.55,1.25-2.81,2.8-2.81l19.02-.02c1.94,0,3.51-1.58,3.51-3.52,0-1.36-.76-2.57-1.98-3.17l-.05-.02-17.28-5.55c-3.6-1.24-6.03-4.63-6.03-8.42C41.06,3.99,45.04,0,49.93,0h21.83V2.53c0,1.55-1.59,2.82-3.15,2.82l-18.69,.02c-1.94,0-3.51,1.58-3.51,3.52,0,1.5,.95,2.84,2.36,3.32l17.67,5.69c3.2,1.38,5.32,4.59,5.32,8.15,0,4.9-3.98,8.89-8.87,8.89h-21.82Z"/><path class="cls-3" d="M127.08,17.5l14.92-14.92-1.67-1.67c-1.17-1.17-3.02-1.22-4.12-.12l-11.8,11.8L112.6,.79c-1.1-1.1-2.95-1.05-4.12,.12l-1.67,1.67,13.8,13.8h0s1.1,1.1,1.1,1.1v17.44h5.37V17.5Z"/><path class="cls-2" d="M36.1,0h-7.49l1.84,1.84L.05,32.26l1.95,1.95c1.03,1.03,2.68,1.05,3.69,.04L34.26,5.65l1.84,1.84V0Z"/><path class="cls-3" d="M5.66,.79c-.99-1.01-2.63-1.02-3.63-.02L0,2.81l12.93,13.35,3.87-3.87L5.66,.79Z"/><path class="cls-3" d="M23.67,19.39l-3.87,3.87,10.63,10.97c.99,1.01,2.63,1.02,3.63,.02l2.03-2.03-12.42-12.83Z"/><path class="cls-3" d="M106.28,2.64l-1.28-1.45c-1.25-1.41-3.41-1.55-4.83-.3l-18.21,16.04V.03h-2.5c-1.54,0-2.78,1.25-2.78,2.78V34.96h5.28V18.01l18.38,16.19c1.33,1.17,3.35,1.04,4.52-.28l1.43-1.62-16.93-14.83L106.28,2.64Z"/></g><rect class="cls-3" x="146.08" y="12.3" width="56.27" height="22.69" rx="3" ry="3"/><text class="cls-1" transform="translate(154.3 30.89)"><tspan x="0" y="0">GFS</tspan></text></g></g></svg>